<svg width="144" height="146" viewBox="0 0 144 146" fill="none" xmlns="http://www.w3.org/2000/svg">
<path d="M108.667 35.875H108.733M38.6667 5.5H105.333C123.743 5.5 138.667 20.6104 138.667 39.25V106.75C138.667 125.39 123.743 140.5 105.333 140.5H38.6667C20.2572 140.5 5.33334 125.39 5.33334 106.75V39.25C5.33334 20.6104 20.2572 5.5 38.6667 5.5ZM98.6667 68.7475C99.4894 74.3652 98.5417 80.1025 95.9584 85.1434C93.3751 90.1842 89.2877 94.272 84.2775 96.8253C79.2674 99.3786 73.5897 100.267 68.0519 99.365C62.5142 98.4628 57.3984 95.8156 53.4323 91.7998C49.4661 87.7841 46.8516 82.6044 45.9605 76.9974C45.0694 71.3905 45.9471 65.6418 48.4688 60.569C50.9906 55.4963 55.0279 51.3578 60.0066 48.7421C64.9852 46.1265 70.6517 45.167 76.2 46C81.8595 46.8497 87.099 49.5199 91.1446 53.6161C95.1903 57.7123 97.8274 63.0173 98.6667 68.7475Z" stroke="white" stroke-width="10" stroke-linecap="round" stroke-linejoin="round"/>
</svg>
