<svg width="149" height="123" viewBox="0 0 149 123" fill="none" xmlns="http://www.w3.org/2000/svg">
<path d="M143.708 4.87503C137.683 9.12491 131.012 12.3754 123.953 14.5013C120.163 10.1444 115.127 7.0563 109.526 5.65474C103.924 4.25317 98.0277 4.60572 92.6331 6.66472C87.2385 8.72372 82.6065 12.3898 79.3634 17.1672C76.1203 21.9445 74.4226 27.6026 74.5 33.3763V39.6679C63.4433 39.9547 52.4872 37.5024 42.6076 32.5297C32.728 27.557 24.2316 20.2181 17.875 11.1667C17.875 11.1667 -7.29165 67.7917 49.3334 92.9584C36.3758 101.754 20.9401 106.164 5.29169 105.542C61.9167 137 131.125 105.542 131.125 33.1875C131.119 31.435 130.951 29.6868 130.622 27.9655C137.043 21.6328 141.574 13.6375 143.708 4.87503Z" stroke="white" stroke-width="9" stroke-linecap="round" stroke-linejoin="round"/>
</svg>
