<svg width="111" height="93" viewBox="0 0 111 93" fill="none" xmlns="http://www.w3.org/2000/svg">
<path d="M58.9042 73.8859C76.6261 73.8859 90.9926 59.9983 90.9926 42.8671C90.9926 25.7359 76.6261 11.8483 58.9042 11.8483C41.1822 11.8483 26.8157 25.7359 26.8157 42.8671C26.8157 59.9983 41.1822 73.8859 58.9042 73.8859Z" stroke="#07AA18" stroke-width="14" stroke-linecap="round" stroke-linejoin="round"/>
<path d="M99.0148 81.6406L81.5667 64.7741" stroke="#07AA18" stroke-width="14" stroke-linecap="round" stroke-linejoin="round"/>
<path d="M76.2019 37.6173L73.5043 29.7943C72.6978 27.4554 70.4438 25.8847 67.8942 25.8847H49.9142C47.3645 25.8847 45.1106 27.4554 44.3041 29.7943L41.6065 37.6173C40.1848 38.1929 39.185 39.5501 39.185 41.1342V50.6651C39.185 52.0719 39.9817 53.288 41.1569 53.9495V56.1873V58.2898C41.1569 59.344 42.0384 60.196 43.1288 60.196H45.1008C46.1912 60.196 47.0727 59.344 47.0727 58.2898V54.4775H70.7357V58.2898C70.7357 59.344 71.6171 60.196 72.7076 60.196H74.6795C75.77 60.196 76.6514 59.344 76.6514 58.2898V53.9495C77.8267 53.288 78.6234 52.0738 78.6234 50.6651V41.1342C78.6234 39.5501 77.6236 38.1929 76.2019 37.6173ZM49.9142 29.6971H67.8922C68.7421 29.6971 69.4954 30.2194 69.7635 31.0009L71.9445 37.3218H70.3788H47.4296H45.8639L48.0429 31.0009C48.313 30.2194 49.0663 29.6971 49.9142 29.6971ZM46.0867 48.7589C44.454 48.7589 43.1288 47.478 43.1288 45.8996C43.1288 44.3213 44.454 43.0404 46.0867 43.0404C47.7195 43.0404 49.0446 44.3213 49.0446 45.8996C49.0446 47.478 47.7195 48.7589 46.0867 48.7589ZM71.7217 48.7589C70.0889 48.7589 68.7638 47.478 68.7638 45.8996C68.7638 44.3213 70.0889 43.0404 71.7217 43.0404C73.3544 43.0404 74.6795 44.3213 74.6795 45.8996C74.6795 47.478 73.3544 48.7589 71.7217 48.7589Z" fill="#07AA18"/>
</svg>
